<mxfile host="65bd71144e">
    <diagram name="Page-1" id="FUj5JuBEpWsL8a2AdBEq">
        <mxGraphModel dx="1110" dy="1528" grid="1" gridSize="10" guides="1" tooltips="1" connect="1" arrows="1" fold="1" page="1" pageScale="1" pageWidth="850" pageHeight="1100" math="0" shadow="0">
            <root>
                <mxCell id="0"/>
                <mxCell id="1" parent="0"/>
                <mxCell id="6EVmLK6l6n9z2KSdd183-135" value="เริ่มต้น" style="whiteSpace=wrap;strokeWidth=1;fillColor=default;" parent="1" vertex="1">
                    <mxGeometry x="1229" y="135" width="101" height="49" as="geometry"/>
                </mxCell>
                <mxCell id="6EVmLK6l6n9z2KSdd183-148" value="สิ้นสุด" style="whiteSpace=wrap;strokeWidth=1;fillColor=default;" parent="1" vertex="1">
                    <mxGeometry x="1230" y="915" width="99" height="50" as="geometry"/>
                </mxCell>
                <mxCell id="6EVmLK6l6n9z2KSdd183-149" value="" style="curved=1;startArrow=none;endArrow=block;exitX=0.5;exitY=1;entryX=0.5;entryY=0;rounded=0;entryDx=0;entryDy=0;exitDx=0;exitDy=0;" parent="1" source="6EVmLK6l6n9z2KSdd183-135" target="6EVmLK6l6n9z2KSdd183-172" edge="1">
                    <mxGeometry relative="1" as="geometry">
                        <Array as="points"/>
                        <mxPoint x="1278.5" y="97" as="targetPoint"/>
                    </mxGeometry>
                </mxCell>
                <mxCell id="6EVmLK6l6n9z2KSdd183-172" value="สมาร์ทโฟน&#xa;รองรับ NDEF" style="rhombus;strokeWidth=1;whiteSpace=wrap;fontStyle=0;fillColor=default;" parent="1" vertex="1">
                    <mxGeometry x="1229" y="245" width="101" height="101" as="geometry"/>
                </mxCell>
                <mxCell id="6EVmLK6l6n9z2KSdd183-189" value="" style="ellipse;whiteSpace=wrap;html=1;aspect=fixed;fillColor=default;" parent="1" vertex="1">
                    <mxGeometry x="1269.5" y="835" width="20" height="20" as="geometry"/>
                </mxCell>
                <mxCell id="6EVmLK6l6n9z2KSdd183-191" value="" style="endArrow=classic;html=1;rounded=0;entryX=0.5;entryY=0;entryDx=0;entryDy=0;exitX=0.5;exitY=1;exitDx=0;exitDy=0;" parent="1" source="6EVmLK6l6n9z2KSdd183-189" target="6EVmLK6l6n9z2KSdd183-148" edge="1">
                    <mxGeometry width="50" height="50" relative="1" as="geometry">
                        <mxPoint x="1219.5" y="811" as="sourcePoint"/>
                        <mxPoint x="1269.5" y="761" as="targetPoint"/>
                    </mxGeometry>
                </mxCell>
                <mxCell id="6EVmLK6l6n9z2KSdd183-223" value="" style="curved=1;startArrow=none;endArrow=block;exitX=0.5;exitY=1;entryX=0.5;entryY=0;rounded=0;entryDx=0;entryDy=0;exitDx=0;exitDy=0;" parent="1" source="6EVmLK6l6n9z2KSdd183-172" target="6EVmLK6l6n9z2KSdd183-222" edge="1">
                    <mxGeometry relative="1" as="geometry">
                        <Array as="points"/>
                        <mxPoint x="1278.5" y="348" as="sourcePoint"/>
                        <mxPoint x="1278.5" y="400" as="targetPoint"/>
                    </mxGeometry>
                </mxCell>
                <mxCell id="20" value="&lt;span style=&quot;color: rgb(0, 0, 0);&quot;&gt;ใช่&lt;/span&gt;" style="edgeLabel;html=1;align=center;verticalAlign=middle;resizable=0;points=[];" parent="6EVmLK6l6n9z2KSdd183-223" vertex="1" connectable="0">
                    <mxGeometry x="-0.1938" relative="1" as="geometry">
                        <mxPoint as="offset"/>
                    </mxGeometry>
                </mxCell>
                <mxCell id="6EVmLK6l6n9z2KSdd183-222" value="แท็กมีข้อมูล" style="rhombus;strokeWidth=1;whiteSpace=wrap;fontStyle=0;fillColor=default;" parent="1" vertex="1">
                    <mxGeometry x="1229" y="405" width="101" height="101" as="geometry"/>
                </mxCell>
                <mxCell id="6EVmLK6l6n9z2KSdd183-225" value="" style="curved=1;startArrow=none;endArrow=block;exitX=0.5;exitY=1;entryX=0.5;entryY=0;rounded=0;entryDx=0;entryDy=0;exitDx=0;exitDy=0;" parent="1" source="6EVmLK6l6n9z2KSdd183-222" target="6EVmLK6l6n9z2KSdd183-227" edge="1">
                    <mxGeometry relative="1" as="geometry">
                        <Array as="points"/>
                        <mxPoint x="1279" y="493" as="sourcePoint"/>
                        <mxPoint x="1278" y="537" as="targetPoint"/>
                    </mxGeometry>
                </mxCell>
                <mxCell id="19" value="&lt;span style=&quot;color: rgb(0, 0, 0);&quot;&gt;ใช่&lt;/span&gt;" style="edgeLabel;html=1;align=center;verticalAlign=middle;resizable=0;points=[];" parent="6EVmLK6l6n9z2KSdd183-225" vertex="1" connectable="0">
                    <mxGeometry x="-0.1783" relative="1" as="geometry">
                        <mxPoint as="offset"/>
                    </mxGeometry>
                </mxCell>
                <mxCell id="22" style="edgeStyle=orthogonalEdgeStyle;html=1;entryX=1;entryY=0.5;entryDx=0;entryDy=0;exitX=1;exitY=0.5;exitDx=0;exitDy=0;rounded=0;" edge="1" parent="1" source="6EVmLK6l6n9z2KSdd183-227" target="6EVmLK6l6n9z2KSdd183-189">
                    <mxGeometry relative="1" as="geometry">
                        <mxPoint x="1340" y="615" as="sourcePoint"/>
                        <Array as="points">
                            <mxPoint x="1390" y="616"/>
                            <mxPoint x="1390" y="845"/>
                        </Array>
                    </mxGeometry>
                </mxCell>
                <mxCell id="24" value="ไม่" style="edgeLabel;html=1;align=center;verticalAlign=middle;resizable=0;points=[];" vertex="1" connectable="0" parent="22">
                    <mxGeometry x="-0.8701" relative="1" as="geometry">
                        <mxPoint as="offset"/>
                    </mxGeometry>
                </mxCell>
                <mxCell id="6EVmLK6l6n9z2KSdd183-227" value="รูปแบบข้อมูล&#xa;ถูกต้อง" style="rhombus;strokeWidth=1;whiteSpace=wrap;fontStyle=0;fillColor=default;" parent="1" vertex="1">
                    <mxGeometry x="1229" y="565" width="101" height="101" as="geometry"/>
                </mxCell>
                <mxCell id="6EVmLK6l6n9z2KSdd183-228" value="ส่งข้อมูลที่อ่าน" style="whiteSpace=wrap;strokeWidth=1;fillColor=default;" parent="1" vertex="1">
                    <mxGeometry x="1230" y="725" width="99" height="50" as="geometry"/>
                </mxCell>
                <mxCell id="6EVmLK6l6n9z2KSdd183-229" value="" style="endArrow=classic;html=1;rounded=0;entryX=0.5;entryY=0;entryDx=0;entryDy=0;exitX=0.5;exitY=1;exitDx=0;exitDy=0;" parent="1" source="6EVmLK6l6n9z2KSdd183-228" target="6EVmLK6l6n9z2KSdd183-189" edge="1">
                    <mxGeometry width="50" height="50" relative="1" as="geometry">
                        <mxPoint x="1200.5" y="737" as="sourcePoint"/>
                        <mxPoint x="1250.5" y="687" as="targetPoint"/>
                    </mxGeometry>
                </mxCell>
                <mxCell id="6EVmLK6l6n9z2KSdd183-230" value="" style="curved=1;startArrow=none;endArrow=block;exitX=0.5;exitY=1;entryX=0.5;entryY=0;rounded=0;entryDx=0;entryDy=0;exitDx=0;exitDy=0;" parent="1" source="6EVmLK6l6n9z2KSdd183-227" target="6EVmLK6l6n9z2KSdd183-228" edge="1">
                    <mxGeometry relative="1" as="geometry">
                        <Array as="points"/>
                        <mxPoint x="1279.3" y="666" as="sourcePoint"/>
                        <mxPoint x="1279.3" y="714" as="targetPoint"/>
                    </mxGeometry>
                </mxCell>
                <mxCell id="18" value="&lt;span style=&quot;color: rgb(0, 0, 0);&quot;&gt;ใช่&lt;/span&gt;" style="edgeLabel;html=1;align=center;verticalAlign=middle;resizable=0;points=[];" parent="6EVmLK6l6n9z2KSdd183-230" vertex="1" connectable="0">
                    <mxGeometry x="-0.2643" relative="1" as="geometry">
                        <mxPoint as="offset"/>
                    </mxGeometry>
                </mxCell>
                <mxCell id="6EVmLK6l6n9z2KSdd183-246" value="" style="ellipse;whiteSpace=wrap;html=1;aspect=fixed;fillColor=default;" parent="1" vertex="1">
                    <mxGeometry x="1160" y="445.5" width="20" height="20" as="geometry"/>
                </mxCell>
                <mxCell id="6EVmLK6l6n9z2KSdd183-247" value="" style="endArrow=classic;html=1;rounded=0;exitX=0;exitY=0.5;exitDx=0;exitDy=0;entryX=1;entryY=0.5;entryDx=0;entryDy=0;" parent="1" source="6EVmLK6l6n9z2KSdd183-222" target="6EVmLK6l6n9z2KSdd183-246" edge="1">
                    <mxGeometry width="50" height="50" relative="1" as="geometry">
                        <mxPoint x="1219.5" y="543" as="sourcePoint"/>
                        <mxPoint x="1269.5" y="493" as="targetPoint"/>
                    </mxGeometry>
                </mxCell>
                <mxCell id="13" value="&lt;span style=&quot;color: rgb(0, 0, 0);&quot;&gt;ไม่&lt;/span&gt;" style="edgeLabel;html=1;align=center;verticalAlign=middle;resizable=0;points=[];" parent="6EVmLK6l6n9z2KSdd183-247" vertex="1" connectable="0">
                    <mxGeometry x="-0.0068" relative="1" as="geometry">
                        <mxPoint as="offset"/>
                    </mxGeometry>
                </mxCell>
                <mxCell id="6EVmLK6l6n9z2KSdd183-250" value="" style="endArrow=classic;html=1;rounded=0;exitX=0;exitY=0.5;exitDx=0;exitDy=0;entryX=0.5;entryY=0;entryDx=0;entryDy=0;edgeStyle=orthogonalEdgeStyle;" parent="1" source="6EVmLK6l6n9z2KSdd183-172" target="6EVmLK6l6n9z2KSdd183-246" edge="1">
                    <mxGeometry width="50" height="50" relative="1" as="geometry">
                        <mxPoint x="1229" y="297" as="sourcePoint"/>
                        <mxPoint x="1160" y="297.5" as="targetPoint"/>
                    </mxGeometry>
                </mxCell>
                <mxCell id="21" value="&lt;span style=&quot;color: rgb(0, 0, 0);&quot;&gt;ไม่&lt;/span&gt;" style="edgeLabel;html=1;align=center;verticalAlign=middle;resizable=0;points=[];" vertex="1" connectable="0" parent="6EVmLK6l6n9z2KSdd183-250">
                    <mxGeometry x="-0.7652" relative="1" as="geometry">
                        <mxPoint as="offset"/>
                    </mxGeometry>
                </mxCell>
                <mxCell id="6EVmLK6l6n9z2KSdd183-254" value="" style="endArrow=classic;html=1;rounded=0;exitX=0.5;exitY=1;exitDx=0;exitDy=0;entryX=0;entryY=0.5;entryDx=0;entryDy=0;edgeStyle=orthogonalEdgeStyle;" parent="1" source="6EVmLK6l6n9z2KSdd183-246" target="6EVmLK6l6n9z2KSdd183-189" edge="1">
                    <mxGeometry width="50" height="50" relative="1" as="geometry">
                        <mxPoint x="1159.5" y="743" as="sourcePoint"/>
                        <mxPoint x="1289.5" y="713" as="targetPoint"/>
                    </mxGeometry>
                </mxCell>
            </root>
        </mxGraphModel>
    </diagram>
</mxfile>